<svg width="45" height="25" viewBox="0 0 45 25" fill="none" xmlns="http://www.w3.org/2000/svg">
<path d="M0 12.5C2.11498 8.73796 5.33582 5.57943 9.30656 3.37346C13.2773 1.1675 17.8433 0 22.5 0C27.1567 0 31.7227 1.1675 35.6934 3.37346C39.6642 5.57943 42.885 8.73796 45 12.5C42.885 16.262 39.6642 19.4206 35.6934 21.6265C31.7227 23.8325 27.1567 25 22.5 25C17.8433 25 13.2773 23.8325 9.30656 21.6265C5.33582 19.4206 2.11498 16.262 0 12.5V12.5ZM22.5 20.8278C24.9357 20.8278 27.2716 19.9504 28.9938 18.3886C30.7161 16.8269 31.6837 14.7087 31.6837 12.5C31.6837 10.2913 30.7161 8.17313 28.9938 6.61137C27.2716 5.04961 24.9357 4.17222 22.5 4.17222C20.0643 4.17222 17.7284 5.04961 16.0062 6.61137C14.2839 8.17313 13.3163 10.2913 13.3163 12.5C13.3163 14.7087 14.2839 16.8269 16.0062 18.3886C17.7284 19.9504 20.0643 20.8278 22.5 20.8278V20.8278ZM22.5 16.6639C21.2822 16.6639 20.1142 16.2252 19.2531 15.4443C18.3919 14.6634 17.9082 13.6043 17.9082 12.5C17.9082 11.3957 18.3919 10.3366 19.2531 9.55569C20.1142 8.77481 21.2822 8.33611 22.5 8.33611C23.7178 8.33611 24.8858 8.77481 25.7469 9.55569C26.6081 10.3366 27.0918 11.3957 27.0918 12.5C27.0918 13.6043 26.6081 14.6634 25.7469 15.4443C24.8858 16.2252 23.7178 16.6639 22.5 16.6639Z" fill="#0171FF"/>
</svg>
