<svg width="30" height="30" viewBox="0 0 30 30" fill="none" xmlns="http://www.w3.org/2000/svg">
<path d="M15 24C21 24 22.5 18 22.5 18H7.5C7.5 18 9 24 15 24Z" fill="#40BB06"/>
<path d="M15 30C23.271 30 30 23.271 30 15C30 6.729 23.271 0 15 0C6.729 0 0 6.729 0 15C0 23.271 6.729 30 15 30ZM15 3C21.6165 3 27 8.3835 27 15C27 21.6165 21.6165 27 15 27C8.3835 27 3 21.6165 3 15C3 8.3835 8.3835 3 15 3Z" fill="#40BB06"/>
<path d="M9.79792 15.9509L12.8729 12.8264C13.0821 12.6173 13.2475 12.3687 13.3595 12.095C13.4715 11.8213 13.5279 11.528 13.5254 11.2323C13.5229 10.9365 13.4615 10.6443 13.3449 10.3725C13.2282 10.1008 13.0586 9.85495 12.8459 9.64943C12.4362 9.24238 11.8849 9.00972 11.3074 9.00021C10.73 8.9907 10.1713 9.20509 9.74842 9.59843C9.31925 9.21013 8.75601 9.00372 8.17756 9.02275C7.5991 9.04178 7.05065 9.28476 6.64792 9.70043C5.76892 10.6004 5.77942 11.9954 6.67642 12.8759L9.79792 15.9509ZM20.2979 15.9509L23.3729 12.8264C23.5821 12.6173 23.7475 12.3687 23.8595 12.095C23.9715 11.8213 24.0279 11.528 24.0254 11.2323C24.0229 10.9365 23.9615 10.6443 23.8449 10.3725C23.7282 10.1008 23.5586 9.85495 23.3459 9.64943C22.9362 9.24238 22.3849 9.00972 21.8074 9.00021C21.23 8.9907 20.6713 9.20509 20.2484 9.59843C19.8194 9.20949 19.2559 9.00253 18.6771 9.02129C18.0983 9.04004 17.5494 9.28303 17.1464 9.69893C16.2674 10.5989 16.2779 11.9939 17.1749 12.8744L20.2979 15.9509V15.9509Z" fill="#40BB06"/>
</svg>
