<svg width="14" height="27" viewBox="0 0 14 27" fill="none" xmlns="http://www.w3.org/2000/svg">
<path d="M0.484988 26.4664C0.161663 26.1107 0 25.6895 0 25.2028C0 24.7172 0.161663 24.2964 0.484988 23.9407L9.95843 13.5178L0.452656 3.05929C0.150885 2.72727 0 2.31225 0 1.81423C0 1.31621 0.161663 0.889328 0.484988 0.533597C0.808314 0.177866 1.19113 0 1.63344 0C2.07489 0 2.45727 0.177866 2.7806 0.533597L13.6443 12.5217C13.7737 12.664 13.8655 12.8182 13.9198 12.9842C13.9733 13.1502 14 13.3281 14 13.5178C14 13.7075 13.9733 13.8854 13.9198 14.0514C13.8655 14.2174 13.7737 14.3715 13.6443 14.5138L2.74827 26.502C2.4465 26.834 2.07489 27 1.63344 27C1.19113 27 0.808314 26.8221 0.484988 26.4664Z" fill="#0171FF"/>
</svg>
