<svg width="30" height="30" viewBox="0 0 30 30" fill="none" xmlns="http://www.w3.org/2000/svg">
<path d="M0.982513 0.983406L0.982514 0.983408L0.983406 0.982513C1.13597 0.829562 1.31721 0.708213 1.51674 0.625415C1.71628 0.542618 1.93019 0.5 2.14622 0.5C2.36225 0.5 2.57616 0.542618 2.77569 0.625415C2.97523 0.708213 3.15647 0.829562 3.30903 0.982513L3.30941 0.982893L14.6469 12.3247L15.0006 12.6785L15.3542 12.3247L26.6916 0.982959C26.6917 0.982937 26.6917 0.982915 26.6917 0.982893C26.8445 0.830164 27.0258 0.70901 27.2254 0.626348C27.4249 0.543673 27.6389 0.501122 27.8549 0.501122C28.0709 0.501122 28.2849 0.543674 28.4845 0.626348C28.684 0.70902 28.8654 0.830197 29.0182 0.982961C29.1709 1.13572 29.2921 1.31708 29.3748 1.51667C29.4574 1.71626 29.5 1.93018 29.5 2.14622C29.5 2.36226 29.4574 2.57618 29.3748 2.77577C29.2921 2.97533 29.171 3.15666 29.0182 3.30941C29.0182 3.30943 29.0182 3.30946 29.0182 3.30948L17.6764 14.6469L17.3227 15.0006L17.6764 15.3542L29.0182 26.6916C29.0182 26.6917 29.0182 26.6917 29.0182 26.6917C29.171 26.8445 29.2921 27.0258 29.3748 27.2254C29.4574 27.4249 29.5 27.6389 29.5 27.8549C29.5 28.0709 29.4574 28.2849 29.3748 28.4845C29.2921 28.684 29.1709 28.8654 29.0182 29.0182C28.8654 29.1709 28.684 29.2921 28.4845 29.3748C28.2849 29.4574 28.0709 29.5 27.8549 29.5C27.6389 29.5 27.4249 29.4574 27.2254 29.3748C27.0258 29.2921 26.8445 29.171 26.6917 29.0182C26.6917 29.0182 26.6917 29.0182 26.6916 29.0182L15.3542 17.6764L15.0006 17.3227L14.6469 17.6764L3.30948 29.0182C3.30946 29.0182 3.30943 29.0182 3.30941 29.0182C3.15666 29.171 2.97533 29.2921 2.77577 29.3748C2.57618 29.4574 2.36226 29.5 2.14622 29.5C1.93018 29.5 1.71626 29.4574 1.51667 29.3748C1.31708 29.2921 1.13572 29.1709 0.982959 29.0182C0.830197 28.8654 0.70902 28.684 0.626347 28.4845C0.543674 28.2849 0.501122 28.0709 0.501122 27.8549C0.501122 27.6389 0.543673 27.4249 0.626348 27.2254C0.70901 27.0258 0.830164 26.8445 0.982893 26.6917C0.982915 26.6917 0.982937 26.6917 0.982959 26.6916L12.3247 15.3542L12.6785 15.0006L12.3247 14.6469L0.982893 3.30941L0.982513 3.30903C0.829562 3.15647 0.708213 2.97523 0.625415 2.77569C0.542618 2.57616 0.5 2.36225 0.5 2.14622C0.5 1.93019 0.542618 1.71628 0.625415 1.51674C0.708213 1.31721 0.829562 1.13597 0.982513 0.983406Z" fill="#0171FF" stroke="black"/>
</svg>
