<svg width="30" height="30" viewBox="0 0 30 30" fill="none" xmlns="http://www.w3.org/2000/svg">
<path d="M15 0C6.729 0 0 6.729 0 15C0 23.271 6.729 30 15 30C23.271 30 30 23.271 30 15C30 6.729 23.271 0 15 0ZM15 27C8.3835 27 3 21.6165 3 15C3 8.3835 8.3835 3 15 3C21.6165 3 27 8.3835 27 15C27 21.6165 21.6165 27 15 27Z" fill="#FFD233"/>
<path d="M9.75 13.4999C10.9926 13.4999 12 12.4926 12 11.2499C12 10.0073 10.9926 8.99994 9.75 8.99994C8.50736 8.99994 7.5 10.0073 7.5 11.2499C7.5 12.4926 8.50736 13.4999 9.75 13.4999Z" fill="#FFD233"/>
<path d="M20.2375 13.4789C21.4744 13.4789 22.477 12.4763 22.477 11.2394C22.477 10.0026 21.4744 8.99994 20.2375 8.99994C19.0007 8.99994 17.998 10.0026 17.998 11.2394C17.998 12.4763 19.0007 13.4789 20.2375 13.4789Z" fill="#FFD233"/>
<path d="M14.9961 23.9999C22.4961 23.9999 23.9961 16.4999 23.9961 16.4999H5.99609C5.99609 16.4999 7.49609 23.9999 14.9961 23.9999Z" fill="#FFD233"/>
</svg>
