<svg width="11" height="21" viewBox="0 0 11 21" fill="none" xmlns="http://www.w3.org/2000/svg">
<path d="M1.78846 0.0107823C2.00191 0.011433 2.21252 0.0598911 2.40478 0.152595C2.59705 0.245299 2.7661 0.379891 2.89951 0.546485L9.7453 9.16146C9.9538 9.4184 10.0666 9.73974 10.0645 10.0706C10.0624 10.4014 9.9454 10.7213 9.7336 10.9755L2.5343 19.4999C2.2899 19.79 1.94021 19.9712 1.56218 20.0036C1.18414 20.036 0.808716 19.9169 0.518495 19.6726C0.228275 19.4282 0.0470315 19.0786 0.0146347 18.7007C-0.0177613 18.3228 0.101343 17.9475 0.345747 17.6573L6.78188 10.0423L0.658876 2.34618C0.485511 2.13538 0.376174 1.87935 0.343802 1.60838C0.31143 1.33741 0.357377 1.06283 0.476209 0.817147C0.59504 0.571464 0.781781 0.364953 1.01434 0.222051C1.24689 0.0791467 1.51553 0.00583203 1.78846 0.0107823Z" fill="#0171FF"/>
</svg>
