<svg width="30" height="30" viewBox="0 0 30 30" fill="none" xmlns="http://www.w3.org/2000/svg">
<path d="M10.1544 15C11.0466 15 11.7698 14.2768 11.7698 13.3846C11.7698 12.4925 11.0466 11.7692 10.1544 11.7692C9.26229 11.7692 8.53906 12.4925 8.53906 13.3846C8.53906 14.2768 9.26229 15 10.1544 15Z" fill="#C76767"/>
<path d="M15.0005 17.1539C18.0577 17.1539 20.6288 19.1415 21.4426 21.854C21.4654 21.935 21.469 22.0202 21.4529 22.1028C21.4369 22.1855 21.4017 22.2632 21.3502 22.3297C21.2987 22.3963 21.2323 22.4498 21.1563 22.4861C21.0804 22.5224 20.997 22.5403 20.9129 22.5385H9.08757C9.00371 22.5398 8.92071 22.5214 8.8452 22.4849C8.76969 22.4485 8.70374 22.3948 8.65262 22.3283C8.60149 22.2619 8.56661 22.1843 8.55074 22.102C8.53487 22.0196 8.53846 21.9347 8.56122 21.854C9.36824 19.1415 11.9401 17.1539 15.0005 17.1539Z" fill="#C76767"/>
<path d="M19.8459 15C20.738 15 21.4612 14.2768 21.4612 13.3846C21.4612 12.4925 20.738 11.7692 19.8459 11.7692C18.9537 11.7692 18.2305 12.4925 18.2305 13.3846C18.2305 14.2768 18.9537 15 19.8459 15Z" fill="#C76767"/>
<path d="M15 29C22.732 29 29 22.732 29 15C29 7.26801 22.732 1 15 1C7.26801 1 1 7.26801 1 15C1 22.732 7.26801 29 15 29Z" stroke="#C76767" stroke-width="1.875" stroke-miterlimit="10"/>
</svg>
