<svg width="18" height="18" viewBox="0 0 18 18" fill="none" xmlns="http://www.w3.org/2000/svg">
<path d="M8 14H10L10.3 12.5C10.5 12.4167 10.6877 12.3293 10.863 12.238C11.0377 12.146 11.2167 12.0333 11.4 11.9L12.85 12.35L13.85 10.65L12.7 9.65C12.7333 9.41667 12.75 9.2 12.75 9C12.75 8.8 12.7333 8.58333 12.7 8.35L13.85 7.35L12.85 5.65L11.4 6.1C11.2167 5.96667 11.0377 5.854 10.863 5.762C10.6877 5.67067 10.5 5.58333 10.3 5.5L10 4H8L7.7 5.5C7.5 5.58333 7.31233 5.67067 7.137 5.762C6.96233 5.854 6.78333 5.96667 6.6 6.1L5.15 5.65L4.15 7.35L5.3 8.35C5.26667 8.58333 5.25 8.8 5.25 9C5.25 9.2 5.26667 9.41667 5.3 9.65L4.15 10.65L5.15 12.35L6.6 11.9C6.78333 12.0333 6.96233 12.146 7.137 12.238C7.31233 12.3293 7.5 12.4167 7.7 12.5L8 14ZM9 11C8.45 11 7.97933 10.804 7.588 10.412C7.196 10.0207 7 9.55 7 9C7 8.45 7.196 7.979 7.588 7.587C7.97933 7.19567 8.45 7 9 7C9.55 7 10.021 7.19567 10.413 7.587C10.8043 7.979 11 8.45 11 9C11 9.55 10.8043 10.0207 10.413 10.412C10.021 10.804 9.55 11 9 11ZM2 18C1.45 18 0.979 17.8043 0.587 17.413C0.195667 17.021 0 16.55 0 16V2C0 1.45 0.195667 0.979 0.587 0.587C0.979 0.195667 1.45 0 2 0H16C16.55 0 17.021 0.195667 17.413 0.587C17.8043 0.979 18 1.45 18 2V16C18 16.55 17.8043 17.021 17.413 17.413C17.021 17.8043 16.55 18 16 18H2ZM2 16H16V2H2V16ZM2 2V16V2Z" fill="#0171FF"/>
</svg>
