<svg width="18" height="18" viewBox="0 0 18 18" fill="none" xmlns="http://www.w3.org/2000/svg">
<path d="M16.6464 3.2643C17.0421 3.40337 17.3849 3.6619 17.6274 4.00416C17.8698 4.34643 18 4.75555 18 5.175V14.175C18 15.1895 17.597 16.1624 16.8797 16.8797C16.1624 17.597 15.1895 18 14.175 18H5.175C4.75555 18 4.34643 17.8698 4.00416 17.6274C3.6619 17.3849 3.40337 17.0421 3.2643 16.6464L5.1516 16.65H14.175C14.8314 16.65 15.4609 16.3892 15.9251 15.9251C16.3892 15.4609 16.65 14.8314 16.65 14.175V5.175L16.6464 5.1291V3.2643ZM13.7214 0C14.2585 0 14.7735 0.213348 15.1533 0.593109C15.5331 0.97287 15.7464 1.48794 15.7464 2.025V13.7223C15.7464 14.2594 15.5331 14.7744 15.1533 15.1542C14.7735 15.534 14.2585 15.7473 13.7214 15.7473H2.025C1.48794 15.7473 0.97287 15.534 0.593109 15.1542C0.213348 14.7744 0 14.2594 0 13.7223V2.025C0 1.48794 0.213348 0.97287 0.593109 0.593109C0.97287 0.213348 1.48794 0 2.025 0H13.7223H13.7214ZM13.7214 1.35H2.025C1.84598 1.35 1.67429 1.42112 1.5477 1.5477C1.42112 1.67429 1.35 1.84598 1.35 2.025V13.7223C1.35 14.0949 1.6524 14.3973 2.025 14.3973H13.7223C13.9013 14.3973 14.073 14.3262 14.1996 14.1996C14.3262 14.073 14.3973 13.9013 14.3973 13.7223V2.025C14.3973 1.84598 14.3262 1.67429 14.1996 1.5477C14.073 1.42112 13.9013 1.35 13.7223 1.35H13.7214Z" fill="#0171FF"/>
</svg>
